<svg width="37" height="37" viewBox="0 0 37 37" fill="none" xmlns="http://www.w3.org/2000/svg">
<path d="M18.5204 0.5C17.1168 0.5 15.7507 0.660642 14.4401 0.965194C7.77547 2.50937 2.52982 7.75502 0.985641 14.419C0.681089 15.7303 0.520447 17.0964 0.520447 18.5C0.520447 28.4411 8.57935 36.5 18.5204 36.5C19.9241 36.5 21.2902 36.3394 22.6014 36.0348C29.2654 34.4906 34.5111 29.2456 36.0559 22.5823C36.3605 21.2711 36.5211 19.9043 36.5211 18.5C36.5211 8.5589 28.4615 0.5 18.5204 0.5ZM18.5204 29.7724C17.1918 29.7724 15.9174 29.5428 14.734 29.1205C11.5546 27.9866 9.0345 25.4665 7.90063 22.2871C7.47828 21.1037 7.24869 19.8286 7.24869 18.5C7.24869 12.2744 12.2949 7.22758 18.5204 7.22758C19.8491 7.22758 21.1235 7.45716 22.3069 7.87952C25.4863 9.01339 28.0071 11.5335 29.1409 14.7129C29.5633 15.8963 29.7929 17.1714 29.7929 18.5C29.7929 24.7256 24.746 29.7724 18.5204 29.7724Z" fill="url(#paint0_linear_84_235)"/>
<path d="M18.5204 11.2349C14.5084 11.2349 11.2554 14.4879 11.2554 18.4999C11.2554 22.512 14.5084 25.765 18.5204 25.765C22.5325 25.765 25.7855 22.512 25.7855 18.4999C25.7855 14.4879 22.5331 11.2349 18.5204 11.2349ZM18.5204 22.8928C16.0947 22.8928 14.1275 20.9263 14.1275 18.4999C14.1275 16.0736 16.0947 14.107 18.5204 14.107C20.9461 14.107 22.9133 16.0736 22.9133 18.4999C22.9133 20.9263 20.9468 22.8928 18.5204 22.8928Z" fill="#FEFCFE"/>
<path d="M22.3069 7.87966C21.1235 7.4573 19.8491 7.22772 18.5204 7.22772C12.2949 7.22772 7.24868 12.2746 7.24868 18.5001C7.24868 19.8288 7.47826 21.1039 7.90062 22.2873C6.4622 21.7438 5.11347 20.893 3.95551 19.7351C2.43609 18.2157 1.44613 16.3676 0.985626 14.4191C2.5298 7.75516 7.77545 2.50951 14.4401 0.965332C16.3879 1.42584 18.236 2.4158 19.7554 3.93521C20.9127 5.09251 21.7634 6.44124 22.3069 7.87966Z" fill="url(#paint1_linear_84_235)"/>
<path d="M36.0559 22.5824C34.5111 29.2457 29.2654 34.4907 22.6014 36.0348C20.6536 35.5743 18.8056 34.5844 17.2862 33.065C16.1282 31.907 15.2775 30.5583 14.7339 29.1205C15.9173 29.5429 17.1918 29.7725 18.5204 29.7725C24.746 29.7725 29.7928 24.7256 29.7928 18.5C29.7928 17.1714 29.5633 15.8963 29.1409 14.7129C30.5787 15.2564 31.9274 16.1071 33.0854 17.2651C34.6048 18.7845 35.5954 20.6339 36.0559 22.5824Z" fill="url(#paint2_linear_84_235)"/>
<path d="M9.61683 31.1713C11.6973 31.1713 13.3839 29.4848 13.3839 27.4043C13.3839 25.3238 11.6973 23.6372 9.61683 23.6372C7.53634 23.6372 5.84976 25.3238 5.84976 27.4043C5.84976 29.4848 7.53634 31.1713 9.61683 31.1713Z" fill="url(#paint3_linear_84_235)"/>
<path d="M27.4575 13.3305C29.538 13.3305 31.2246 11.6439 31.2246 9.56346C31.2246 7.48296 29.538 5.79639 27.4575 5.79639C25.377 5.79639 23.6904 7.48296 23.6904 9.56346C23.6904 11.6439 25.377 13.3305 27.4575 13.3305Z" fill="url(#paint4_linear_84_235)"/>
<defs>
<linearGradient id="paint0_linear_84_235" x1="31.076" y1="6.63588" x2="6.35579" y2="29.9953" gradientUnits="userSpaceOnUse">
<stop stop-color="#F38856"/>
<stop offset="0.23" stop-color="#F0625C"/>
<stop offset="1" stop-color="#5C3DAB"/>
</linearGradient>
<linearGradient id="paint1_linear_84_235" x1="17.3812" y1="3.55168" x2="3.3203" y2="17.537" gradientUnits="userSpaceOnUse">
<stop stop-color="#F67986"/>
<stop offset="1" stop-color="#8951BA"/>
</linearGradient>
<linearGradient id="paint2_linear_84_235" x1="33.4629" y1="19.7196" x2="19.402" y2="33.7055" gradientUnits="userSpaceOnUse">
<stop stop-color="#F67986"/>
<stop offset="1" stop-color="#8951BA"/>
</linearGradient>
<linearGradient id="paint3_linear_84_235" x1="12.3672" y1="24.8306" x2="6.86583" y2="29.9779" gradientUnits="userSpaceOnUse">
<stop stop-color="#A267B9"/>
<stop offset="1" stop-color="#704BB4"/>
</linearGradient>
<linearGradient id="paint4_linear_84_235" x1="29.7473" y1="7.42022" x2="25.9916" y2="10.9349" gradientUnits="userSpaceOnUse">
<stop stop-color="#F7A8A5"/>
<stop offset="0.97" stop-color="#D074C4"/>
<stop offset="1" stop-color="#CF76A9"/>
</linearGradient>
</defs>
</svg>
